<?xml version="1.0" encoding="utf-8"?>
<!-- Generator: Adobe Illustrator 23.0.3, SVG Export Plug-In . SVG Version: 6.00 Build 0)  -->
<svg version="1.1" id="Layer_1" xmlns="http://www.w3.org/2000/svg" xmlns:xlink="http://www.w3.org/1999/xlink" x="0px" y="0px"
	 viewBox="0 0 32 32" style="enable-background:new 0 0 32 32;" xml:space="preserve">
<style type="text/css">
	.st0{fill:#FFFFFF;}
</style>
<g>
	<circle cx="16" cy="16" r="16"/>
</g>
<g>
	<g>
		<path class="st0" d="M4.6,10.6h1.8l2.2,6.3c0.3,0.8,0.5,1.6,0.8,2.4h0.1c0.3-0.8,0.5-1.6,0.8-2.4l2.2-6.3h1.8v11.7H13v-6.4
			c0-1,0.1-2.4,0.2-3.5h-0.1l-0.9,2.7L10,21.1H9l-2.2-6.1l-0.9-2.7H5.8c0.1,1,0.2,2.4,0.2,3.5v6.4H4.6V10.6z"/>
		<path class="st0" d="M17.6,10.6h1.8l2.2,6.3c0.3,0.8,0.5,1.6,0.8,2.4h0.1c0.3-0.8,0.5-1.6,0.8-2.4l2.2-6.3h1.8v11.7H26v-6.4
			c0-1,0.1-2.4,0.2-3.5h-0.1l-0.9,2.7L23,21.1h-1l-2.2-6.1l-0.9-2.7h-0.1c0.1,1,0.2,2.4,0.2,3.5v6.4h-1.3V10.6z"/>
	</g>
</g>
</svg>
