<?xml version="1.0" encoding="utf-8"?>
<!-- Generator: Adobe Illustrator 23.0.3, SVG Export Plug-In . SVG Version: 6.00 Build 0)  -->
<svg version="1.1" id="Layer_1" xmlns="http://www.w3.org/2000/svg" xmlns:xlink="http://www.w3.org/1999/xlink" x="0px" y="0px"
	 viewBox="0 0 1920 530" style="enable-background:new 0 0 1920 530;" xml:space="preserve">
<style type="text/css">
	.st0{fill:#3E68FF;}
	.st1{fill:#E5E5E5;}
	.st2{fill:#FFFFFF;}
</style>
<path class="st0" d="M1111.3,17.4c-33.4-13.2-73.2,9.1-59.1,33.1l126,214.5l-126,214.5c-14.1,24,25.6,46.3,59.1,33.1l627-247.6
	L1111.3,17.4z"/>
<g>
	<path d="M395.6,277.7l37.7,9.5c-7.9,30.9-22.1,54.5-42.6,70.8c-20.5,16.2-45.6,24.4-75.2,24.4c-30.7,0-55.6-6.2-74.8-18.7
		c-19.2-12.5-33.8-30.6-43.9-54.3c-10-23.7-15-49.1-15-76.3c0-29.6,5.7-55.5,17-77.6c11.3-22.1,27.4-38.8,48.3-50.3
		C267.9,93.7,290.9,88,316,88c28.5,0,52.4,7.3,71.8,21.7c19.4,14.5,32.9,34.9,40.6,61.2l-37.1,8.7c-6.6-20.7-16.2-35.8-28.7-45.2
		c-12.6-9.4-28.3-14.2-47.4-14.2c-21.9,0-40.2,5.2-54.8,15.7c-14.7,10.5-25,24.6-31,42.2c-6,17.7-8.9,35.9-8.9,54.7
		c0,24.2,3.5,45.3,10.6,63.4c7.1,18.1,18,31.5,32.9,40.5c14.9,8.9,31,13.4,48.3,13.4c21.1,0,39-6.1,53.6-18.3
		C380.5,319.7,390.4,301.6,395.6,277.7z"/>
	<path d="M475.2,377.4V92.8h34.9v102.1c16.3-18.9,36.9-28.3,61.7-28.3c15.3,0,28.5,3,39.8,9c11.3,6,19.3,14.3,24.2,24.9
		c4.9,10.6,7.3,26,7.3,46.2v130.7h-34.9V246.8c0-17.5-3.8-30.2-11.4-38.1s-18.3-11.9-32.1-11.9c-10.4,0-20.1,2.7-29.2,8.1
		c-9.1,5.4-15.6,12.7-19.5,21.8c-3.9,9.2-5.8,21.9-5.8,38.1v112.8H475.2z"/>
	<path d="M830.9,352c-12.9,11-25.4,18.8-37.4,23.3c-12,4.5-24.8,6.8-38.5,6.8c-22.7,0-40.1-5.5-52.2-16.6
		c-12.2-11.1-18.3-25.2-18.3-42.4c0-10.1,2.3-19.3,6.9-27.7c4.6-8.3,10.6-15,18.1-20.1c7.4-5,15.8-8.9,25.1-11.5
		c6.9-1.8,17.2-3.6,31.1-5.2c28.2-3.4,49-7.4,62.3-12c0.1-4.8,0.2-7.8,0.2-9.1c0-14.2-3.3-24.3-9.9-30.1
		c-8.9-7.9-22.2-11.8-39.8-11.8c-16.4,0-28.6,2.9-36.4,8.6c-7.8,5.8-13.6,16-17.4,30.6l-34.2-4.7c3.1-14.6,8.2-26.4,15.3-35.4
		c7.1-9,17.4-15.9,30.9-20.8c13.5-4.9,29.1-7.3,46.8-7.3c17.6,0,31.9,2.1,42.9,6.2c11,4.1,19.1,9.4,24.3,15.6
		c5.2,6.3,8.8,14.2,10.9,23.8c1.2,6,1.7,16.7,1.7,32.2V291c0,32.5,0.7,53,2.2,61.6c1.5,8.6,4.4,16.9,8.8,24.8h-36.5
		C834.3,370.2,831.9,361.7,830.9,352z M828,274c-12.7,5.2-31.7,9.6-57.1,13.2c-14.4,2.1-24.5,4.4-30.5,7c-6,2.6-10.6,6.4-13.8,11.4
		c-3.2,5-4.9,10.5-4.9,16.6c0,9.3,3.5,17.1,10.6,23.3c7.1,6.2,17.4,9.3,31,9.3c13.5,0,25.4-2.9,35.9-8.8
		c10.5-5.9,18.2-13.9,23.1-24.2c3.8-7.9,5.6-19.5,5.6-34.9V274z"/>
	<path d="M993.8,346.2l5,30.9c-9.8,2.1-18.6,3.1-26.4,3.1c-12.7,0-22.5-2-29.5-6c-7-4-11.9-9.3-14.8-15.8
		c-2.8-6.5-4.3-20.3-4.3-41.3V198.4h-25.6v-27.2h25.6v-51.1l34.8-21v72h35.1v27.2h-35.1V319c0,10,0.6,16.4,1.8,19.2
		c1.2,2.8,3.2,5.1,6,6.8c2.8,1.7,6.8,2.5,11.9,2.5C982.3,347.5,987.5,347.1,993.8,346.2z"/>
	<path d="M1104.3,346.2l5,30.9c-9.8,2.1-18.6,3.1-26.4,3.1c-12.7,0-22.5-2-29.5-6c-7-4-11.9-9.3-14.8-15.8
		c-2.8-6.5-4.3-20.3-4.3-41.3V198.4h-25.6v-27.2h25.6v-51.1l34.8-21v72h35.1v27.2h-35.1V319c0,10,0.6,16.4,1.8,19.2
		c1.2,2.8,3.2,5.1,6,6.8c2.8,1.7,6.8,2.5,11.9,2.5C1092.8,347.5,1097.9,347.1,1104.3,346.2z"/>
</g>
<path d="M1285.6,311l36.1,4.5c-5.7,21.1-16.2,37.5-31.6,49.1c-15.4,11.6-35.1,17.5-59,17.5c-30.2,0-54.1-9.3-71.7-27.9
	c-17.7-18.6-26.5-44.6-26.5-78.1c0-34.7,8.9-61.6,26.8-80.8c17.9-19.2,41-28.7,69.5-28.7c27.6,0,50.1,9.4,67.6,28.2
	c17.5,18.8,26.2,45.2,26.2,79.2c0,2.1-0.1,5.2-0.2,9.3h-153.8c1.3,22.7,7.7,40,19.2,52c11.5,12,25.9,18.1,43.1,18.1
	c12.8,0,23.8-3.4,32.8-10.1C1273.1,336.5,1280.3,325.8,1285.6,311z M1170.8,254.6H1286c-1.6-17.3-6-30.4-13.2-39
	c-11.1-13.5-25.6-20.2-43.3-20.2c-16.1,0-29.5,5.4-40.5,16.1C1178.1,222.2,1172,236.6,1170.8,254.6z"/>
<path d="M1365.2,377.4V171.3h31.5v31.3c8-14.6,15.4-24.3,22.2-28.9c6.8-4.7,14.3-7,22.4-7c11.8,0,23.8,3.8,35.9,11.3l-12,32.4
	c-8.5-5-17.1-7.6-25.6-7.6c-7.6,0-14.5,2.3-20.6,6.9c-6.1,4.6-10.4,11-13,19.1c-3.9,12.4-5.8,26-5.8,40.8v107.9H1365.2z"/>
<path class="st1" d="M1322.7,283.3h-153.8c1.3,22.7,7.7,40,19.2,52c11.5,12,25.9,18,43.1,18c12.8,0,23.8-3.4,32.8-10.1
	c9.1-6.7,16.2-17.5,21.5-32.2l36.1,4.5c-5.7,21.1-16.3,37.5-31.7,49.1c-15.4,11.6-35.1,17.5-59,17.5c-30.2,0-54.1-9.3-71.7-27.9
	c-7.4-7.8-13.2-16.8-17.5-27.2l36.4-62l-6.1-10.4H1286c-1.5-17.3-6-30.3-13.2-39c-11.1-13.5-25.6-20.2-43.3-20.2
	c-16.1,0-29.6,5.4-40.5,16.1c-10.6,10.4-16.6,24.1-18,41.2l-23.7-40.4c3.5-6.2,7.6-11.8,12.3-16.9c17.9-19.2,41-28.7,69.5-28.7
	c27.6,0,50.1,9.4,67.6,28.2c17.5,18.8,26.2,45.2,26.2,79.2C1322.9,276,1322.8,279.1,1322.7,283.3z"/>
<path class="st1" d="M1477.2,177.9l-12,32.4c-8.5-5-17.1-7.6-25.6-7.6c-7.6,0-14.5,2.3-20.6,6.9c-6.1,4.6-10.4,11-13,19.1
	c-3.9,12.4-5.8,26-5.8,40.8v108h-34.9V171.3h31.5v31.3c8-14.6,15.4-24.3,22.2-28.9c6.8-4.7,14.3-7,22.4-7
	C1453.1,166.6,1465,170.4,1477.2,177.9z"/>
<g>
	<path class="st2" d="M1322.9,274c0-34-8.7-60.4-26.2-79.2c-17.5-18.8-40-28.2-67.6-28.2c-28.5,0-51.6,9.6-69.5,28.7
		c-4.8,5.1-8.9,10.7-12.3,16.9l23.7,40.4c1.5-17.1,7.5-30.9,18-41.2c10.9-10.7,24.4-16.1,40.5-16.1c17.7,0,32.2,6.7,43.3,20.2
		c7.3,8.7,11.7,21.7,13.2,39h-113.9l6.1,10.4l-36.4,62c4.3,10.4,10.1,19.4,17.5,27.2c17.7,18.6,41.6,27.9,71.7,27.9
		c23.9,0,43.6-5.8,59-17.5c15.4-11.7,25.9-28,31.7-49.1l-36.1-4.5c-5.3,14.8-12.5,25.5-21.5,32.2c-9.1,6.7-20,10.1-32.8,10.1
		c-17.2,0-31.6-6-43.1-18c-11.5-12-17.9-29.4-19.2-52h153.8C1322.8,279.1,1322.9,276,1322.9,274z"/>
	<path class="st2" d="M1477.2,177.9l-12,32.4c-8.5-5-17.1-7.6-25.6-7.6c-7.6,0-14.5,2.3-20.6,6.9c-6.1,4.6-10.4,11-13,19.1
		c-3.9,12.4-5.8,26-5.8,40.8v108h-34.9V171.3h31.5v31.3c8-14.6,15.4-24.3,22.2-28.9c6.8-4.7,14.3-7,22.4-7
		C1453.1,166.6,1465,170.4,1477.2,177.9z"/>
</g>
</svg>
